<svg width="42" height="42" viewBox="0 0 42 42" fill="none" xmlns="http://www.w3.org/2000/svg">
<path d="M0.6875 21C0.6875 32.2178 9.78223 41.3125 21 41.3125C32.2178 41.3125 41.3125 32.2178 41.3125 21C41.3125 9.78223 32.2178 0.6875 21 0.6875C9.78223 0.6875 0.6875 9.78223 0.6875 21ZM21.4541 12.0781C21.5998 12.2226 21.7156 12.3944 21.7949 12.5837C21.8742 12.773 21.9155 12.9761 21.9163 13.1813C21.9171 13.3865 21.8775 13.5899 21.7997 13.7798C21.7219 13.9697 21.6074 14.1424 21.4629 14.2881L16.3535 19.4375H29.3984C29.8128 19.4375 30.2103 19.6021 30.5033 19.8951C30.7963 20.1882 30.9609 20.5856 30.9609 21C30.9609 21.4144 30.7963 21.8118 30.5033 22.1049C30.2103 22.3979 29.8128 22.5625 29.3984 22.5625H16.3535L21.4629 27.7119C21.6074 27.8577 21.7218 28.0306 21.7995 28.2206C21.8773 28.4106 21.9168 28.6141 21.9159 28.8194C21.915 29.0247 21.8737 29.2278 21.7943 29.4172C21.7149 29.6065 21.5989 29.7783 21.4531 29.9229C21.3073 30.0674 21.1345 30.1818 20.9444 30.2595C20.7544 30.3372 20.5509 30.3768 20.3456 30.3759C20.1403 30.375 19.9372 30.3336 19.7479 30.2542C19.5586 30.1748 19.3867 30.0589 19.2422 29.9131L11.4893 22.1006C11.1988 21.8079 11.0359 21.4123 11.0359 21C11.0359 20.5877 11.1988 20.1921 11.4893 19.8994L19.2422 12.0869C19.3867 11.9409 19.5587 11.8249 19.7481 11.7454C19.9376 11.6659 20.1409 11.6246 20.3463 11.6238C20.5518 11.6229 20.7554 11.6627 20.9455 11.7406C21.1355 11.8186 21.3084 11.9333 21.4541 12.0781Z" fill="#38B7EE"/>
</svg>
