<?xml version="1.0" standalone="no"?>
<!DOCTYPE svg PUBLIC "-//W3C//DTD SVG 20010904//EN"
 "http://www.w3.org/TR/2001/REC-SVG-20010904/DTD/svg10.dtd">
<svg version="1.0" xmlns="http://www.w3.org/2000/svg"
 width="50.000000pt" height="50.000000pt" viewBox="0 0 50.000000 50.000000"
 preserveAspectRatio="xMidYMid meet">

<g transform="translate(0.000000,50.000000) scale(0.100000,-0.100000)"
fill="#000000" stroke="none">
<path d="M40 394 c0 -9 -9 -18 -20 -21 -19 -5 -20 -14 -20 -123 0 -109 1 -118
20 -123 11 -3 20 -12 20 -21 0 -14 25 -16 210 -16 185 0 210 2 210 16 0 9 9
18 20 21 19 5 20 14 20 124 0 102 -2 119 -16 119 -9 0 -18 9 -21 20 -5 19 -14
20 -214 20 -185 0 -209 -2 -209 -16z m417 -26 c21 -20 23 -30 23 -117 0 -83
-3 -97 -22 -118 -21 -22 -26 -23 -207 -23 -176 0 -186 1 -208 22 -21 20 -23
30 -23 117 0 83 3 97 22 118 21 22 26 23 207 23 176 0 186 -1 208 -22z"/>
<path d="M100 290 c0 -6 57 -10 150 -10 93 0 150 4 150 10 0 6 -57 10 -150 10
-93 0 -150 -4 -150 -10z"/>
<path d="M100 210 c0 -6 57 -10 150 -10 93 0 150 4 150 10 0 6 -57 10 -150 10
-93 0 -150 -4 -150 -10z"/>
</g>
</svg>
