<?xml version="1.0" standalone="no"?>
<!DOCTYPE svg PUBLIC "-//W3C//DTD SVG 20010904//EN"
 "http://www.w3.org/TR/2001/REC-SVG-20010904/DTD/svg10.dtd">
<svg version="1.0" xmlns="http://www.w3.org/2000/svg"
 width="512.000000pt" height="512.000000pt" viewBox="0 0 512.000000 512.000000"
 preserveAspectRatio="xMidYMid meet">

<g transform="translate(0.000000,512.000000) scale(0.100000,-0.100000)"
fill="#000000" stroke="none">
<path d="M681 4905 c-183 -40 -341 -167 -422 -340 -45 -97 -59 -160 -59 -268
0 -166 59 -306 179 -427 251 -254 644 -247 889 15 104 111 162 258 162 412 0
105 -14 170 -56 262 -121 263 -409 407 -693 346z m292 -263 c80 -37 145 -101
184 -180 25 -51 28 -67 28 -162 0 -95 -3 -111 -28 -162 -39 -79 -104 -143
-185 -181 -60 -28 -76 -32 -152 -31 -156 2 -275 75 -342 212 -31 62 -33 74
-33 167 0 89 3 106 28 157 93 189 312 268 500 180z"/>
<path d="M2299 4654 c-102 -31 -201 -127 -236 -229 -12 -32 -18 -79 -17 -130
0 -66 5 -91 28 -142 31 -69 106 -147 172 -181 83 -42 107 -43 1284 -40 l1125
3 65 31 c84 40 144 100 183 182 29 60 32 76 32 157 0 76 -5 99 -26 145 -39 81
-99 144 -177 182 l-67 33 -1160 2 c-984 1 -1167 0 -1206 -13z m2357 -266 c28
-31 34 -46 34 -80 0 -55 -30 -105 -75 -124 -29 -12 -199 -14 -1132 -14 -1026
0 -1100 1 -1132 18 -19 9 -43 29 -54 43 -38 52 -20 142 37 179 31 20 42 20
1159 17 l1129 -2 34 -37z"/>
<path d="M695 3165 c-141 -31 -232 -83 -328 -184 -71 -76 -127 -176 -152 -276
-19 -76 -19 -214 0 -290 54 -211 217 -382 425 -447 160 -49 366 -21 506 70 89
58 177 158 223 255 47 98 61 160 61 267 0 107 -14 169 -62 270 -55 114 -168
229 -278 282 -128 62 -269 81 -395 53z m206 -239 c75 -17 134 -53 192 -115 74
-79 91 -126 92 -251 0 -96 -2 -110 -29 -162 -95 -189 -328 -269 -509 -176 -62
31 -140 111 -173 175 -27 53 -29 67 -29 163 0 95 3 110 28 160 51 99 144 178
245 205 62 17 114 18 183 1z"/>
<path d="M2307 2919 c-66 -16 -133 -56 -185 -113 -66 -73 -94 -146 -94 -246 0
-146 76 -266 210 -332 l67 -33 1170 0 1170 0 57 27 c79 37 142 98 181 177 29
60 32 74 32 161 0 87 -3 101 -32 161 -39 79 -102 140 -181 177 l-57 27 -1150
2 c-649 1 -1166 -3 -1188 -8z m2314 -252 c60 -41 77 -113 39 -174 -40 -67 36
-63 -1185 -63 -1182 0 -1133 -2 -1178 48 -55 60 -29 171 48 202 11 5 520 9
1131 9 l1111 1 34 -23z"/>
<path d="M681 1425 c-183 -40 -341 -167 -422 -340 -45 -97 -59 -160 -59 -268
0 -166 59 -306 179 -427 251 -254 644 -247 889 15 104 111 162 258 162 412 0
105 -14 170 -56 262 -121 263 -409 407 -693 346z m292 -263 c80 -37 145 -101
184 -180 25 -51 28 -67 28 -162 0 -95 -3 -111 -28 -162 -39 -79 -104 -143
-185 -181 -60 -28 -76 -32 -152 -31 -156 2 -275 75 -342 212 -31 62 -33 74
-33 167 0 89 3 106 28 157 93 189 312 268 500 180z"/>
<path d="M2327 1179 c-106 -25 -202 -105 -251 -209 -26 -55 -31 -77 -31 -145
0 -173 95 -305 255 -355 64 -20 85 -20 1215 -18 l1150 3 57 27 c208 97 280
356 152 545 -42 61 -83 94 -162 131 l-57 27 -1145 2 c-646 1 -1161 -3 -1183
-8z m2288 -243 c72 -30 99 -136 50 -194 -13 -16 -37 -35 -52 -41 -21 -8 -323
-11 -1145 -9 l-1117 3 -30 29 c-71 68 -54 173 34 212 47 21 2211 20 2260 0z"/>
</g>
</svg>
