<?xml version="1.0" standalone="no"?>
<!DOCTYPE svg PUBLIC "-//W3C//DTD SVG 20010904//EN"
 "http://www.w3.org/TR/2001/REC-SVG-20010904/DTD/svg10.dtd">
<svg version="1.0" xmlns="http://www.w3.org/2000/svg"
 width="100.000000pt" height="100.000000pt" viewBox="0 0 100.000000 100.000000"
 preserveAspectRatio="xMidYMid meet">

<g transform="translate(0.000000,100.000000) scale(0.100000,-0.100000)"
fill="#000000" stroke="none">
<path d="M399 892 c-82 -42 -113 -99 -119 -216 -4 -76 -9 -98 -33 -137 -156
-260 117 -557 388 -424 104 50 159 143 160 265 0 62 -5 85 -28 132 -53 107
-143 162 -267 163 -61 0 -85 -5 -128 -26 l-52 -26 0 56 c0 210 252 279 340 93
26 -55 57 -68 52 -22 -9 84 -117 170 -212 170 -33 0 -64 -9 -101 -28z m216
-280 c47 -24 95 -73 121 -122 26 -49 26 -171 0 -220 -26 -49 -74 -98 -121
-123 -31 -17 -58 -22 -115 -22 -85 0 -133 20 -186 77 -54 57 -69 95 -69 178 0
83 15 121 69 178 31 34 70 58 116 73 41 14 142 3 185 -19z"/>
<path d="M460 420 c-11 -11 -20 -29 -20 -40 0 -11 9 -29 20 -40 11 -11 20 -33
20 -50 0 -23 4 -30 20 -30 16 0 20 7 20 30 0 17 9 39 20 50 11 11 20 29 20 40
0 11 -9 29 -20 40 -11 11 -29 20 -40 20 -11 0 -29 -9 -40 -20z"/>
</g>
</svg>
