<?xml version="1.0" standalone="no"?>
<!DOCTYPE svg PUBLIC "-//W3C//DTD SVG 20010904//EN"
 "http://www.w3.org/TR/2001/REC-SVG-20010904/DTD/svg10.dtd">
<svg version="1.0" xmlns="http://www.w3.org/2000/svg"
 width="48.000000pt" height="48.000000pt" viewBox="0 0 48.000000 48.000000"
 preserveAspectRatio="xMidYMid meet">

<g transform="translate(0.000000,48.000000) scale(0.100000,-0.100000)"
fill="#000000" stroke="none">
<path d="M52 428 c-16 -16 -16 -180 0 -196 16 -16 140 -16 156 0 16 16 16 180
0 196 -7 7 -40 12 -78 12 -38 0 -71 -5 -78 -12z m128 -98 l0 -70 -50 0 -50 0
0 70 0 70 50 0 50 0 0 -70z"/>
<path d="M272 428 c-16 -16 -16 -100 0 -116 16 -16 140 -16 156 0 7 7 12 33
12 58 0 25 -5 51 -12 58 -7 7 -40 12 -78 12 -38 0 -71 -5 -78 -12z m128 -58
c0 -29 -1 -30 -50 -30 -49 0 -50 1 -50 30 0 29 1 30 50 30 49 0 50 -1 50 -30z"/>
<path d="M272 248 c-16 -16 -16 -180 0 -196 16 -16 140 -16 156 0 16 16 16
180 0 196 -16 16 -140 16 -156 0z m128 -98 l0 -70 -50 0 -50 0 0 70 0 70 50 0
50 0 0 -70z"/>
<path d="M52 168 c-16 -16 -16 -100 0 -116 7 -7 40 -12 78 -12 38 0 71 5 78
12 7 7 12 33 12 58 0 25 -5 51 -12 58 -16 16 -140 16 -156 0z m128 -58 c0 -29
-1 -30 -50 -30 -49 0 -50 1 -50 30 0 29 1 30 50 30 49 0 50 -1 50 -30z"/>
</g>
</svg>
