<?xml version="1.0" standalone="no"?>
<!DOCTYPE svg PUBLIC "-//W3C//DTD SVG 20010904//EN"
 "http://www.w3.org/TR/2001/REC-SVG-20010904/DTD/svg10.dtd">
<svg version="1.0" xmlns="http://www.w3.org/2000/svg"
 width="96.000000pt" height="96.000000pt" viewBox="0 0 96.000000 96.000000"
 preserveAspectRatio="xMidYMid meet">

<g transform="translate(0.000000,96.000000) scale(0.100000,-0.100000)"
fill="#000000" stroke="none">
<path d="M393 770 c-5 -17 -15 -20 -112 -22 -102 -3 -106 -4 -109 -26 -3 -17
2 -25 17 -29 25 -6 26 -11 46 -268 9 -110 18 -208 21 -217 3 -10 17 -27 31
-38 23 -18 40 -20 193 -20 153 0 170 2 193 20 14 11 28 28 31 38 3 9 12 107
21 217 20 257 21 262 46 268 15 4 20 12 17 29 -3 22 -7 23 -109 26 -97 2 -107
5 -112 22 -5 18 -14 20 -87 20 -73 0 -82 -2 -87 -20z m292 -117 c-3 -21 -12
-126 -21 -233 -9 -107 -18 -198 -20 -202 -7 -10 -321 -10 -328 0 -2 4 -11 95
-20 202 -9 107 -18 212 -21 233 l-5 37 210 0 210 0 -5 -37z"/>
</g>
</svg>
