<?xml version="1.0" standalone="no"?>
<!DOCTYPE svg PUBLIC "-//W3C//DTD SVG 20010904//EN"
 "http://www.w3.org/TR/2001/REC-SVG-20010904/DTD/svg10.dtd">
<svg version="1.0" xmlns="http://www.w3.org/2000/svg"
 width="96.000000pt" height="96.000000pt" viewBox="0 0 96.000000 96.000000"
 preserveAspectRatio="xMidYMid meet">

<g transform="translate(0.000000,96.000000) scale(0.100000,-0.100000)"
fill="#000000" stroke="none">
<path d="M739 873 c-38 -36 -69 -75 -69 -85 0 -32 29 -33 61 -2 l29 28 30 -29
30 -29 -76 -77 c-57 -57 -87 -80 -116 -87 l-40 -10 7 36 c3 20 20 51 36 67 33
35 36 47 13 66 -14 11 -22 7 -58 -31 -34 -36 -45 -57 -55 -107 -20 -94 5 -111
115 -78 42 12 67 33 177 143 117 119 127 132 127 166 0 54 -44 96 -100 96 -38
0 -48 -6 -111 -67z m147 -19 c4 -17 1 -31 -10 -42 -15 -15 -18 -14 -42 10 -33
33 -26 58 15 58 25 0 32 -5 37 -26z"/>
<path d="M178 824 c-55 -29 -58 -48 -58 -344 0 -298 3 -316 60 -345 41 -21
242 -21 260 0 10 12 10 18 0 30 -10 12 -37 15 -121 15 -84 0 -111 3 -123 16
-14 13 -16 53 -16 282 0 150 4 274 10 282 7 12 44 16 192 20 l183 5 0 25 0 25
-180 2 c-144 2 -185 -1 -207 -13z"/>
<path d="M792 578 c-8 -8 -12 -65 -12 -187 0 -97 -5 -183 -10 -191 -7 -11 -36
-16 -117 -20 -107 -5 -108 -5 -108 -30 0 -25 1 -25 102 -28 78 -2 110 1 133
13 54 28 60 55 60 253 0 169 -5 202 -30 202 -3 0 -11 -5 -18 -12z"/>
</g>
</svg>
