<?xml version="1.0" standalone="no"?>
<!DOCTYPE svg PUBLIC "-//W3C//DTD SVG 20010904//EN"
 "http://www.w3.org/TR/2001/REC-SVG-20010904/DTD/svg10.dtd">
<svg version="1.0" xmlns="http://www.w3.org/2000/svg"
 width="512.000000pt" height="512.000000pt" viewBox="0 0 512.000000 512.000000"
 preserveAspectRatio="xMidYMid meet">

<g transform="translate(0.000000,512.000000) scale(0.100000,-0.100000)"
fill="#000000" stroke="none">
<path d="M2359 4215 c-978 -119 -1643 -1063 -1425 -2025 37 -161 117 -362 192
-482 13 -21 24 -45 24 -54 0 -9 -34 -143 -75 -297 -109 -404 -122 -391 282
-282 154 41 288 75 297 75 9 0 33 -11 54 -24 120 -75 321 -155 482 -192 368
-83 757 -39 1095 125 829 404 1177 1401 776 2226 -313 643 -995 1016 -1702
930z m356 -145 c336 -39 635 -174 873 -396 626 -581 654 -1548 63 -2167 -309
-324 -783 -502 -1218 -459 -263 27 -430 84 -709 243 l-41 23 -242 -63 c-133
-35 -244 -61 -248 -58 -3 3 22 109 56 234 33 126 61 237 61 249 0 11 -14 42
-30 68 -241 380 -302 857 -164 1283 55 169 155 350 275 498 311 384 838 600
1324 545z"/>
<path d="M2513 3296 l-28 -24 0 -557 0 -557 24 -19 c30 -24 76 -24 100 0 11
11 22 39 26 63 3 24 5 274 3 556 l-3 514 -28 24 c-35 30 -59 30 -94 0z"/>
<path d="M2510 1930 c-30 -30 -27 -83 6 -109 15 -12 34 -21 44 -21 10 0 29 9
44 21 52 41 23 129 -44 129 -17 0 -39 -9 -50 -20z"/>
</g>
</svg>
