<?xml version="1.0" standalone="no"?>
<!DOCTYPE svg PUBLIC "-//W3C//DTD SVG 20010904//EN"
 "http://www.w3.org/TR/2001/REC-SVG-20010904/DTD/svg10.dtd">
<svg version="1.0" xmlns="http://www.w3.org/2000/svg"
 width="100.000000pt" height="100.000000pt" viewBox="0 0 100.000000 100.000000"
 preserveAspectRatio="xMidYMid meet">

<g transform="translate(0.000000,100.000000) scale(0.100000,-0.100000)"
fill="#000000" stroke="none">
<path d="M450 941 c0 -15 11 -19 73 -24 171 -13 306 -110 369 -267 31 -78 31
-222 0 -300 -63 -157 -198 -254 -369 -267 -62 -5 -73 -9 -73 -24 0 -16 8 -19
44 -19 128 0 244 50 334 144 70 73 107 146 124 243 47 276 -174 533 -458 533
-36 0 -44 -3 -44 -19z"/>
<path d="M304 916 c-37 -16 -50 -34 -37 -47 9 -9 37 0 91 27 5 2 -10 34 -17
34 -3 -1 -20 -7 -37 -14z"/>
<path d="M138 781 c-25 -35 -26 -40 -11 -46 24 -9 76 54 61 72 -15 19 -20 16
-50 -26z"/>
<path d="M570 539 l-113 -169 -56 49 c-31 27 -65 58 -75 70 -22 24 -42 27 -49
6 -4 -9 27 -43 90 -99 l97 -85 123 184 c68 102 123 189 123 194 0 5 -6 11 -14
14 -10 4 -50 -48 -126 -164z"/>
<path d="M56 614 c-4 -19 -10 -42 -13 -51 -4 -11 0 -14 18 -11 37 5 52 98 15
98 -8 0 -17 -15 -20 -36z"/>
<path d="M43 437 c3 -9 9 -32 13 -51 3 -21 12 -36 20 -36 20 0 25 19 16 60 -6
26 -14 36 -31 38 -18 3 -22 0 -18 -11z"/>
<path d="M122 263 c-14 -6 36 -82 55 -83 24 0 23 21 -3 55 -27 36 -30 37 -52
28z"/>
<path d="M265 131 c-3 -6 -3 -16 1 -22 9 -16 73 -41 84 -34 20 13 9 31 -27 45
-21 8 -41 16 -45 18 -3 2 -9 -2 -13 -7z"/>
</g>
</svg>
