<?xml version="1.0" standalone="no"?>
<!DOCTYPE svg PUBLIC "-//W3C//DTD SVG 20010904//EN"
 "http://www.w3.org/TR/2001/REC-SVG-20010904/DTD/svg10.dtd">
<svg version="1.0" xmlns="http://www.w3.org/2000/svg"
 width="100.000000pt" height="100.000000pt" viewBox="0 0 100.000000 100.000000"
 preserveAspectRatio="xMidYMid meet">

<g transform="translate(0.000000,100.000000) scale(0.100000,-0.100000)"
fill="#000000" stroke="none">
<path d="M5 929 c-14 -21 11 -28 107 -31 l97 -3 -105 -114 c-57 -63 -103 -119
-101 -125 2 -7 46 -12 110 -14 l107 -3 0 -42 0 -42 52 53 53 52 -53 52 -52 53
0 -43 0 -42 -77 0 -77 0 30 33 c17 17 65 70 107 116 43 46 76 89 74 95 -5 15
-263 21 -272 5z"/>
<path d="M366 919 c-20 -16 -26 -29 -26 -59 0 -34 8 -48 61 -105 34 -36 56
-65 50 -65 -13 0 -38 -38 -43 -65 -2 -11 -15 -28 -31 -38 -32 -20 -48 -55 -40
-86 3 -12 1 -21 -5 -21 -20 0 -52 -43 -52 -69 0 -14 16 -58 36 -98 52 -101
238 -286 305 -304 51 -14 79 -8 79 16 0 10 -10 15 -31 15 -50 0 -90 25 -174
110 l-80 80 38 0 c34 0 77 26 77 48 0 4 16 8 36 8 28 0 43 7 60 28 13 15 24
34 24 42 0 8 4 14 9 14 5 0 16 3 24 6 12 4 14 -5 10 -58 -4 -52 0 -71 19 -108
13 -25 31 -46 41 -48 23 -5 22 19 -3 60 -24 40 -26 98 -4 159 17 45 17 46 -11
92 -15 26 -32 47 -38 47 -7 0 -32 -11 -56 -25 -23 -14 -53 -25 -65 -25 -23 0
-74 45 -64 55 23 23 209 115 232 115 21 0 45 -17 101 -71 41 -39 81 -86 90
-105 8 -18 18 -70 22 -114 5 -67 9 -80 22 -78 22 4 25 53 11 142 l-12 71 -92
93 c-83 84 -96 94 -136 99 -42 5 -55 16 -176 134 -141 139 -158 148 -208 108z
m179 -139 c65 -65 117 -121 115 -123 -3 -3 -19 -12 -36 -20 l-31 -16 -112 113
c-88 89 -110 117 -104 132 7 21 22 34 38 34 6 0 64 -54 130 -120z m-26 -146
c17 -14 31 -29 31 -33 0 -4 -14 -15 -30 -25 -25 -14 -34 -15 -46 -5 -28 23
-34 45 -18 67 19 28 26 28 63 -4z m-67 -105 c31 -42 67 -77 116 -117 23 -18
42 -39 42 -47 0 -16 -27 -45 -43 -45 -14 0 -197 183 -197 197 0 16 29 43 45
43 7 0 24 -14 37 -31z m236 -86 c-2 -23 -8 -28 -32 -28 -39 0 -44 20 -9 39 39
21 45 20 41 -11z m-249 -68 c54 -56 61 -67 51 -85 -18 -34 -51 -24 -112 37
-70 69 -79 113 -23 113 14 0 45 -24 84 -65z"/>
</g>
</svg>
