<?xml version="1.0" standalone="no"?>
<!DOCTYPE svg PUBLIC "-//W3C//DTD SVG 20010904//EN"
 "http://www.w3.org/TR/2001/REC-SVG-20010904/DTD/svg10.dtd">
<svg version="1.0" xmlns="http://www.w3.org/2000/svg"
 width="48.000000pt" height="48.000000pt" viewBox="0 0 48.000000 48.000000"
 preserveAspectRatio="xMidYMid meet">

<g transform="translate(0.000000,48.000000) scale(0.100000,-0.100000)"
fill="#000000" stroke="none">
<path d="M196 401 c-26 -29 -18 -82 17 -101 24 -13 30 -13 55 0 21 12 28 24
30 53 2 28 0 37 -12 37 -11 0 -16 -9 -16 -29 0 -30 -19 -45 -45 -35 -25 10
-18 53 11 64 14 6 22 14 19 20 -10 16 -41 12 -59 -9z"/>
<path d="M87 372 c-38 -42 -6 -107 49 -100 40 4 42 26 2 30 -28 2 -33 7 -33
28 0 20 6 26 28 28 15 2 27 9 27 18 0 21 -54 18 -73 -4z"/>
<path d="M320 376 c0 -9 12 -16 28 -18 21 -2 27 -8 27 -28 0 -21 -5 -25 -30
-26 -46 -2 -48 -3 -35 -19 17 -21 63 -19 83 3 22 24 21 65 -1 85 -23 21 -72
23 -72 3z"/>
<path d="M154 255 c-4 -10 -20 -15 -48 -15 -47 0 -66 -13 -66 -46 0 -23 42
-64 66 -64 22 0 16 24 -8 35 -13 6 -24 18 -26 28 -3 13 4 17 31 17 34 0 35 -1
42 -47 7 -46 19 -73 35 -73 4 0 5 34 2 75 l-5 75 62 0 61 0 0 -58 c0 -64 -18
-92 -58 -92 -26 0 -39 -18 -18 -26 49 -19 102 27 111 97 7 48 8 49 41 49 46 0
45 -26 -2 -46 -27 -11 -34 -18 -25 -27 17 -17 63 3 81 36 22 39 5 61 -51 65
-25 2 -47 10 -52 18 -12 21 -165 20 -173 -1z"/>
</g>
</svg>
