<svg width="100" height="100" viewBox="0 0 100 100" fill="none" xmlns="http://www.w3.org/2000/svg">
<circle cx="50" cy="50" r="47.5" fill="white" stroke="#039BE5" stroke-width="5"/>
<path d="M63.9982 34.0005H64.0094H63.9982ZM77.9414 30.0005H66.5593L67.6743 25.5431L72.4641 23.9119C73.4828 23.5656 74.089 22.4831 73.7953 21.4481C73.7206 21.1878 73.5937 20.9453 73.4225 20.7355C73.2512 20.5256 73.0391 20.3527 72.799 20.2273C72.559 20.1019 72.2959 20.0265 72.0258 20.0058C71.7558 19.9852 71.4843 20.0195 71.2279 20.1069L65.3531 22.1069C65.0368 22.2148 64.7525 22.4002 64.5263 22.6463C64.3 22.8924 64.1391 23.1913 64.0582 23.5156L62.437 30.0005H46.0551C44.9789 30.0005 44.0552 30.828 44.0015 31.9043C43.9884 32.1747 44.0304 32.4449 44.1249 32.6986C44.2194 32.9523 44.3645 33.1842 44.5512 33.3802C44.738 33.5762 44.9626 33.7322 45.2114 33.8389C45.4603 33.9455 45.7282 34.0005 45.9989 34.0005H46.3426L46.4676 35.083C46.4971 35.3358 46.6184 35.5689 46.8085 35.7381C46.9986 35.9073 47.2443 36.0007 47.4988 36.0005C52.3736 36.0005 56.706 37.363 60.0133 39.9404C61.8529 41.3579 63.3442 43.1771 64.3732 45.2591C64.9492 46.4302 65.3742 47.6697 65.6381 48.9478C65.6907 49.1969 65.8382 49.4157 66.0494 49.5578C67.7497 50.7116 69.0041 52.4125 69.6039 54.3779C70.2038 56.3433 70.113 58.4548 69.3467 60.3615C69.2576 60.5821 69.2509 60.8275 69.328 61.0527C69.7708 62.3217 69.9973 63.6561 69.998 65.0002C69.998 67.7926 69.048 70.4539 67.3231 72.4938C66.3451 73.6581 65.1149 74.5844 63.7257 75.2025C63.4854 75.3085 63.2963 75.5047 63.1995 75.7488C62.6803 77.1012 61.9473 78.3614 61.0283 79.4813C60.9901 79.5267 60.9655 79.5821 60.9576 79.641C60.9498 79.6998 60.9588 79.7597 60.9837 79.8136C61.0086 79.8675 61.0484 79.9132 61.0984 79.9454C61.1483 79.9775 61.2064 79.9947 61.2658 79.995H67.4168C68.9228 79.9888 70.3719 79.4191 71.4789 78.3979C72.5858 77.3768 73.2704 75.9782 73.3978 74.4776L77.6727 34.0005H77.9976C78.2686 34.0008 78.5368 33.9461 78.7859 33.8396C79.035 33.7331 79.2599 33.5771 79.447 33.3811C79.634 33.1851 79.7792 32.9531 79.8739 32.6992C79.9685 32.4454 80.0106 32.1749 79.9976 31.9043C79.9451 30.828 79.0176 30.0005 77.9414 30.0005Z" fill="#85FF80"/>
<path d="M31.5858 58.0003C31.9802 57.9984 32.3711 58.0748 32.7359 58.225C33.1006 58.3752 33.432 58.5962 33.7107 58.8752L35.6494 60.814C35.6958 60.8605 35.751 60.8973 35.8117 60.9225C35.8724 60.9477 35.9374 60.9606 36.0031 60.9606C36.0688 60.9606 36.1339 60.9477 36.1946 60.9225C36.2553 60.8973 36.3104 60.8605 36.3569 60.814L38.2918 58.8752C38.5706 58.5962 38.9019 58.3752 39.2666 58.225C39.6314 58.0748 40.0223 57.9984 40.4167 58.0003H64.9883C65.1196 58.0016 65.2499 57.977 65.3717 57.928C65.4935 57.8789 65.6045 57.8064 65.6983 57.7145C65.7921 57.6225 65.8668 57.513 65.9183 57.3922C65.9698 57.2714 65.9969 57.1416 65.9982 57.0103V57.0003C65.9968 55.8481 65.5982 54.7316 64.8696 53.839C64.141 52.9464 63.1269 52.3324 61.9984 52.1003C61.8959 48.3891 60.3734 45.2829 57.5598 43.1004C54.9574 41.0704 51.48 40.0005 47.4989 40.0005H38.4993C29.9721 40.0005 24.1961 44.8467 23.9998 52.1003C22.8713 52.3324 21.8572 52.9464 21.1286 53.839C20.4 54.7316 20.0014 55.8481 20 57.0003C20 57.2655 20.1054 57.5198 20.2929 57.7074C20.4804 57.8949 20.7348 58.0003 21 58.0003H31.5858ZM41.2417 62.0002C41.1103 62.0001 40.9802 62.0259 40.8588 62.0761C40.7375 62.1263 40.6271 62.1999 40.5342 62.2927L37.7668 65.0614C37.298 65.5301 36.6623 65.7934 35.9994 65.7934C35.3365 65.7934 34.7008 65.5301 34.232 65.0614L31.4646 62.2927C31.3716 62.1999 31.2613 62.1263 31.1399 62.0761C31.0185 62.0259 30.8884 62.0001 30.7571 62.0002H22.0824C21.6126 61.9981 21.1572 62.1622 20.7967 62.4635C20.4363 62.7647 20.1939 63.1838 20.1125 63.6465C20.0374 64.0938 19.9998 64.5466 20 65.0002C20 68.8239 22.6411 71.9389 25.9073 72.0001C26.211 73.8901 26.946 75.5976 28.0522 76.9338C29.6884 78.91 32.067 80 34.7494 80H51.2488C53.9312 80 56.3098 78.91 57.946 76.9313C59.0522 75.5951 59.7872 73.8876 60.091 71.9976C63.3571 71.9389 65.9982 68.8239 65.9982 64.9977C65.9984 64.5441 65.9608 64.0913 65.8857 63.6439C65.8038 63.1817 65.5612 62.7633 65.2008 62.4625C64.8403 62.1618 64.3852 61.998 63.9158 62.0002H41.2417Z" fill="#85FF80"/>
</svg>
