<svg width="100" height="100" viewBox="0 0 100 100" fill="none" xmlns="http://www.w3.org/2000/svg">
<circle cx="50" cy="50" r="47.5" fill="white" stroke="#039BE5" stroke-width="5"/>
<path d="M82.4375 54.5664H88.2773C88.1602 56.4805 87.6328 58.1797 86.6953 59.6641C85.7708 61.1484 84.4753 62.3073 82.8086 63.1406C81.1549 63.974 79.1628 64.3906 76.832 64.3906C75.0091 64.3906 73.375 64.0781 71.9297 63.4531C70.4844 62.8151 69.2474 61.9036 68.2188 60.7188C67.2031 59.5339 66.4284 58.1016 65.8945 56.4219C65.3607 54.7422 65.0938 52.8607 65.0938 50.7773V48.8047C65.0938 46.7214 65.3672 44.8398 65.9141 43.1602C66.474 41.4674 67.2682 40.0286 68.2969 38.8438C69.3385 37.6589 70.582 36.7474 72.0273 36.1094C73.4727 35.4714 75.0872 35.1523 76.8711 35.1523C79.2409 35.1523 81.2396 35.582 82.8672 36.4414C84.5078 37.3008 85.7773 38.4857 86.6758 39.9961C87.5872 41.5065 88.1341 43.2253 88.3164 45.1523H82.457C82.3919 44.0065 82.1641 43.0365 81.7734 42.2422C81.3828 41.4349 80.7904 40.8294 79.9961 40.4258C79.2148 40.0091 78.1732 39.8008 76.8711 39.8008C75.8945 39.8008 75.0417 39.9831 74.3125 40.3477C73.5833 40.7122 72.9714 41.2656 72.4766 42.0078C71.9818 42.75 71.6107 43.6875 71.3633 44.8203C71.1289 45.9401 71.0117 47.2552 71.0117 48.7656V50.7773C71.0117 52.2487 71.1224 53.5443 71.3438 54.6641C71.5651 55.7708 71.9036 56.7083 72.3594 57.4766C72.8281 58.2318 73.4271 58.8047 74.1562 59.1953C74.8984 59.5729 75.7904 59.7617 76.832 59.7617C78.056 59.7617 79.0651 59.5664 79.8594 59.1758C80.6536 58.7852 81.2591 58.2057 81.6758 57.4375C82.1055 56.6693 82.3594 55.7122 82.4375 54.5664Z" fill="#FF0000"/>
<path d="M50.8984 51.5195H43.5938L43.5547 47.4961H49.6875C50.7682 47.4961 51.6536 47.3594 52.3438 47.0859C53.0339 46.7995 53.5482 46.3893 53.8867 45.8555C54.2383 45.3086 54.4141 44.6445 54.4141 43.8633C54.4141 42.9779 54.2448 42.2617 53.9062 41.7148C53.5807 41.168 53.0664 40.7708 52.3633 40.5234C51.6732 40.276 50.7812 40.1523 49.6875 40.1523H45.625V64H39.7656V35.5625H49.6875C51.3411 35.5625 52.819 35.7188 54.1211 36.0312C55.4362 36.3438 56.5495 36.819 57.4609 37.457C58.3724 38.0951 59.069 38.9023 59.5508 39.8789C60.0326 40.8424 60.2734 41.9883 60.2734 43.3164C60.2734 44.4883 60.0065 45.569 59.4727 46.5586C58.9518 47.5482 58.125 48.3555 56.9922 48.9805C55.8724 49.6055 54.4076 49.9505 52.5977 50.0156L50.8984 51.5195ZM50.6445 64H41.9922L44.2773 59.4297H50.6445C51.6732 59.4297 52.513 59.2669 53.1641 58.9414C53.8151 58.6029 54.2969 58.1471 54.6094 57.5742C54.9219 57.0013 55.0781 56.3438 55.0781 55.6016C55.0781 54.7682 54.9349 54.0456 54.6484 53.4336C54.375 52.8216 53.9323 52.3529 53.3203 52.0273C52.7083 51.6888 51.901 51.5195 50.8984 51.5195H45.2539L45.293 47.4961H52.3242L53.6719 49.0781C55.4036 49.0521 56.7969 49.3581 57.8516 49.9961C58.9193 50.6211 59.694 51.4349 60.1758 52.4375C60.6706 53.4401 60.918 54.5143 60.918 55.6602C60.918 57.4831 60.5208 59.0195 59.7266 60.2695C58.9323 61.5065 57.7669 62.4375 56.2305 63.0625C54.707 63.6875 52.8451 64 50.6445 64Z" fill="#00C2FF"/>
<path d="M24.1641 40.4258L16.4297 64H10.1992L20.7656 35.5625H24.7305L24.1641 40.4258ZM30.5898 64L22.8359 40.4258L22.2109 35.5625H26.2148L36.8398 64H30.5898ZM30.2383 53.4141V58.0039H15.2188V53.4141H30.2383Z" fill="#FFF500"/>
</svg>
