<?xml version="1.0" standalone="no"?>
<!DOCTYPE svg PUBLIC "-//W3C//DTD SVG 20010904//EN"
 "http://www.w3.org/TR/2001/REC-SVG-20010904/DTD/svg10.dtd">
<svg version="1.0" xmlns="http://www.w3.org/2000/svg"
 width="42.000000pt" height="42.000000pt" viewBox="0 0 42.000000 42.000000"
 preserveAspectRatio="xMidYMid meet">

<g transform="translate(0.000000,42.000000) scale(0.100000,-0.100000)"
fill="#000000" stroke="none">
<path d="M70 350 c-18 -18 -20 -31 -18 -105 2 -48 7 -85 13 -85 6 0 12 39 15
87 l5 88 90 3 c76 2 92 0 102 -15 10 -12 16 -14 24 -6 8 8 5 17 -10 32 -18 18
-33 21 -111 21 -77 0 -93 -3 -110 -20z"/>
<path d="M280 273 c0 -4 10 -17 22 -30 l21 -23 -101 0 c-61 0 -102 -4 -102
-10 0 -6 41 -10 102 -10 l101 0 -21 -23 c-12 -13 -22 -26 -22 -30 0 -17 29 -4
60 28 l34 35 -34 35 c-31 32 -60 45 -60 28z"/>
<path d="M57 123 c-12 -12 -7 -33 13 -53 17 -17 33 -20 110 -20 78 0 93 3 111
21 15 15 18 24 10 32 -8 8 -14 6 -24 -6 -10 -15 -26 -17 -102 -15 -85 3 -90 4
-93 26 -3 22 -13 28 -25 15z"/>
</g>
</svg>
