<?xml version="1.0" encoding="UTF-8" standalone="no"?>
<!-- Created with Inkscape (http://www.inkscape.org/) -->

<svg
   width="1000"
   height="1000"
   viewBox="0 0 264.58334 264.58334"
   version="1.1"
   id="svg5"
   xml:space="preserve"
   inkscape:version="1.4 (86a8ad7, 2024-10-11)"
   sodipodi:docname="IconoTHT2.0.svg"
   inkscape:export-filename="IconoTHT2.0.png"
   inkscape:export-xdpi="96"
   inkscape:export-ydpi="96"
   xmlns:inkscape="http://www.inkscape.org/namespaces/inkscape"
   xmlns:sodipodi="http://sodipodi.sourceforge.net/DTD/sodipodi-0.dtd"
   xmlns="http://www.w3.org/2000/svg"
   xmlns:svg="http://www.w3.org/2000/svg"><sodipodi:namedview
     id="namedview7"
     pagecolor="#ffffff"
     bordercolor="#999999"
     borderopacity="1"
     inkscape:showpageshadow="0"
     inkscape:pageopacity="0"
     inkscape:pagecheckerboard="0"
     inkscape:deskcolor="#d1d1d1"
     inkscape:document-units="cm"
     showgrid="true"
     inkscape:zoom="1"
     inkscape:cx="376"
     inkscape:cy="765.5"
     inkscape:window-width="1920"
     inkscape:window-height="991"
     inkscape:window-x="-9"
     inkscape:window-y="-9"
     inkscape:window-maximized="1"
     inkscape:current-layer="layer4"
     guidecolor="#001ce5"
     guideopacity="0.6"
     guidehicolor="#ff1919"
     guidehiopacity="0.49803922"
     showguides="false"><inkscape:grid
       type="xygrid"
       id="grid132"
       originx="0"
       originy="0"
       dotted="false"
       units="cm"
       spacingy="1"
       spacingx="1" /><sodipodi:guide
       position="0,170.00009"
       orientation="0,642.51969"
       id="guide4201"
       inkscape:locked="false" /><sodipodi:guide
       position="170,170.00009"
       orientation="642.51969,0"
       id="guide4203"
       inkscape:locked="false" /><sodipodi:guide
       position="170,8.8500978e-05"
       orientation="0,-642.51969"
       id="guide4205"
       inkscape:locked="false" /><sodipodi:guide
       position="0,8.8500978e-05"
       orientation="-642.51969,0"
       id="guide4207"
       inkscape:locked="false" /></sodipodi:namedview><defs
     id="defs2" /><g
     inkscape:groupmode="layer"
     id="layer4"
     inkscape:label="Capa 3"
     style="display:inline;fill:#119ee9;fill-opacity:1;stroke:#119ee9;stroke-opacity:1"><g
       id="g1"
       transform="matrix(1.5992678,0,0,1.5891856,-3.4450498,-2.5880652)"><path
         id="path5305"
         style="display:inline;mix-blend-mode:normal;fill:#039be5;fill-opacity:1;fill-rule:evenodd;stroke:#039be5;stroke-width:4;stroke-linejoin:round;stroke-dasharray:none;stroke-opacity:1"
         d="M 85.006281,6.7602092 C 42.092316,6.7600515 6.5419055,41.795448 7.3033475,84.999136 8.0777856,128.94022 43.795659,163.01922 85.006281,163.23868 127.91966,163.46721 162.70882,128.20955 162.70865,84.999136 162.70848,41.788962 127.92003,6.7603669 85.006281,6.7602092 Z"
         sodipodi:nodetypes="sssss" /><g
         id="g4143"
         style="display:inline;mix-blend-mode:normal;fill:#ffffff;fill-opacity:1;stroke:#ffffff;stroke-width:1;stroke-dasharray:none;stroke-opacity:1"
         transform="translate(-37.411204,0.33506718)"><path
           style="fill:#ffffff;fill-opacity:1;fill-rule:evenodd;stroke:#ffffff;stroke-width:1;stroke-linejoin:round;stroke-dasharray:none;stroke-opacity:1;paint-order:normal"
           d="m 120.5829,40.252821 c -1.38278,0.07139 -2.66043,0.975756 -3.45135,2.035278 -0.8696,1.164927 -1.53546,2.018187 -2.69412,3.282224 -1.12697,1.229469 -2.4331,2.44732 -2.67624,2.71881 -0.1796,0.20053 -2.14792,2.328058 -2.14792,2.328058 l -2.66406,2.320311 c 0,0 -3.35156,1.632813 -4.5332,2.878905 -1.18164,1.246095 -5.091798,3.652346 -5.736331,3.609377 -0.64453,-0.04297 -2.707031,1.289061 -3.093749,2.277343 -0.38672,0.988282 -1.289063,3.28711 -1.289063,3.28711 l -1.611329,4.189452 c 0,0 -1.362208,3.250662 -2.041014,4.876953 -0.660345,1.582062 -1.286536,3.178706 -1.976562,4.748049 -0.87052,1.979843 -1.850435,3.910216 -2.728516,5.886717 -1.099526,2.47496 -2.220761,4.943811 -3.179688,7.476565 -1.042434,2.753316 -2.011002,5.540607 -2.792968,8.378907 -0.825683,2.99698 -1.389875,6.0608 -1.998049,9.10937 -1.282605,6.42926 -3.480467,19.35743 -3.480467,19.35743 l 18.541014,0.0644 c 0,0 0.02541,-4.63843 0.04208,-6.95762 0.01624,-2.25973 -0.03481,-4.52118 0.05645,-6.77912 0.08171,-2.02168 0.226094,-4.04201 0.439481,-6.05406 0.169322,-1.59655 0.425294,-3.1829 0.666646,-4.77016 0.178707,-1.17528 -0.09504,-2.53958 0.578553,-3.51912 0.667421,-0.97057 2.101011,-1.086504 3.050781,-1.783204 1.177336,-0.863631 2.261974,-1.862929 3.244141,-2.943358 1.02221,-1.124483 1.95315,-2.345371 2.72852,-3.652345 0.57064,-0.961872 0.749,-2.138865 1.39648,-3.050781 1.0175,-1.433049 3.80274,-3.652343 3.80274,-3.652343 0,0 3.65234,-3.308593 10.16211,-2.277345 6.50976,1.03125 0.49414,-9.216795 -5.34961,-8.292968 -5.84375,0.923827 -8.20703,5.650391 -9.73242,0.923827 -1.52539,-4.726562 -0.47266,-3.673827 0.23632,-5.048827 0.70899,-1.375 0.92383,-2.986328 0.92383,-2.986328 0,0 3.67383,-2.64258 5.19922,-5.156251 1.52539,-2.513671 6.24953,-8.812279 7.11133,-10.441406 0.73892,-1.396834 10.01143,-8.225763 6.8572,-11.534056 0,0 -1.33814,-0.876749 -1.86024,-0.849794 z"
           id="path919"
           sodipodi:nodetypes="ssssccsssccssssssccssssssssscsssscsscs" /><path
           style="fill:#ffffff;fill-opacity:1;fill-rule:evenodd;stroke:#ffffff;stroke-width:1;stroke-linejoin:round;stroke-dasharray:none;stroke-opacity:1;paint-order:normal"
           d="m 140.12868,129.06909 24.06373,-0.0304 1.54956,-12.76107 5.37787,-22.30149 1.09381,-5.499412 c 0,0 1.00265,-6.198233 -2.67375,-14.401777 -3.6764,-8.203544 -9.81387,-17.500894 -13.52065,-21.784967 -3.70679,-4.284072 -2.52183,-1.39764 -7.83894,-0.273449 -5.31711,1.124188 -10.78614,1.245722 -12.06225,0.941887 -1.27611,-0.303834 -10.26962,-1.64071 -10.87729,-1.39764 -0.60767,0.243068 -1.33688,2.278761 -0.51652,3.615635 0.82035,1.336873 -0.0608,0.546904 2.21799,2.643365 2.27877,2.09646 1.15457,3.463715 7.93009,2.977581 4.11027,0.158794 2.51222,0.367258 8.72654,1.975821 7.69746,2.40588 4.8245,7.139228 4.36875,7.139228 -0.45575,0 0.7292,0.911506 -5.8944,-0.759587 -6.6236,-1.671092 -11.97109,9.418884 -7.10973,9.266966 4.86135,-0.151916 11.36342,-1.853393 14.43216,2.217994 3.06873,4.07139 7.23127,5.924783 7.10973,6.015934 -0.12153,0.09115 -5.59056,11.363426 -8.35546,18.412401 -2.7649,7.04897 -8.23392,22.17995 -8.02124,24.00296 z"
           id="path2659"
           sodipodi:nodetypes="cccccsssssssccsssssssc" /></g></g></g></svg>
