<svg width="100" height="100" viewBox="0 0 100 100" fill="none" xmlns="http://www.w3.org/2000/svg">
<circle cx="50" cy="50" r="47.5" fill="white" stroke="#039BE5" stroke-width="5"/>
<path d="M29.4424 65.3533C25.6385 65.3533 22.5446 64.1619 20.2245 61.7966C17.9045 59.4314 16.3819 55.9214 15.4953 50.8147C14.1898 43.2888 15.4852 36.9455 19.1428 32.9543C21.2962 30.6036 24.1226 29.2446 27.3158 29.0258C30.0497 28.8363 34.1362 29.7972 38.0831 35.4421C40.5546 38.9768 42.4338 43.6723 43.2397 48.3241C44.2138 53.9397 43.4887 58.0738 41.0223 60.9596C39.064 63.252 36.0525 64.6723 32.0703 65.1885C31.2002 65.2993 30.3218 65.3543 29.4424 65.3533ZM36.0323 85C33.8099 85 31.5571 84.3832 29.5282 83.1976C26.6003 81.478 24.5738 78.8264 23.8888 75.819C23.4093 73.6812 23.697 71.9824 24.767 70.6218C26.5049 68.4126 29.6241 67.9154 32.9249 67.3875C33.2732 67.3321 33.6265 67.2767 33.9848 67.2169C34.7453 67.0915 35.5225 66.9252 36.2763 66.7634C39.0993 66.1597 42.0199 65.5341 44.4308 67.0186C46.0442 68.0102 46.9544 69.6959 47.227 72.169C47.5365 75.0228 46.8299 77.8707 45.2367 80.1893C43.5223 82.6843 40.9516 84.3336 38.0024 84.8352C37.3534 84.945 36.6936 85.0002 36.0323 85ZM70.55 51.3543C69.6714 51.3517 68.7942 51.2932 67.9254 51.1793C63.9449 50.6689 60.9334 49.2471 58.9751 46.9504C56.5087 44.0646 55.7786 39.9319 56.7577 34.3148C57.5636 29.6587 59.4378 24.9676 61.8974 21.446C65.8241 15.8216 69.9157 14.846 72.6648 15.0181C75.8478 15.2193 78.6692 16.5594 80.826 18.897C84.5088 22.8881 85.8143 29.2504 84.5038 36.8099C83.6171 41.9137 82.1148 45.4061 79.7746 47.7918C77.4343 50.1775 74.3539 51.3543 70.55 51.3543ZM63.96 71.001C63.3004 71.0009 62.6424 70.9457 61.995 70.8362C59.0407 70.3346 56.47 68.6853 54.7607 66.1903C53.1675 63.8717 52.4609 61.0238 52.7704 58.17C53.0396 55.691 53.9481 54.0112 55.5666 53.0181C57.9775 51.5351 60.8981 52.1592 63.7211 52.7644C64.4749 52.9248 65.2521 53.091 66.0126 53.2179L67.0708 53.3885C70.3733 53.9149 73.4925 54.4093 75.2304 56.6214C76.3004 57.9819 76.5881 59.6837 76.1086 61.8185C75.4242 64.8265 73.3976 67.4788 70.4692 69.1986C68.4285 70.3856 66.1758 71.001 63.96 71.001Z" fill="#FFA930"/>
</svg>
