<svg width="100" height="100" viewBox="0 0 100 100" fill="none" xmlns="http://www.w3.org/2000/svg">
<circle cx="50" cy="50" r="47.5" fill="white" stroke="#039BE5" stroke-width="5"/>
<path d="M65.625 31.25H64.0625V29.7314C64.0625 28.8906 63.416 28.1689 62.5752 28.1269C62.3639 28.1168 62.1528 28.1496 61.9546 28.2234C61.7564 28.2972 61.5752 28.4105 61.4221 28.5564C61.269 28.7024 61.1471 28.8778 61.0638 29.0722C60.9805 29.2667 60.9375 29.476 60.9375 29.6875V31.25H39.0625V29.7314C39.0625 28.8906 38.416 28.1689 37.5752 28.1269C37.3639 28.1168 37.1528 28.1496 36.9546 28.2234C36.7564 28.2972 36.5752 28.4105 36.4221 28.5564C36.269 28.7024 36.1471 28.8778 36.0638 29.0722C35.9805 29.2667 35.9375 29.476 35.9375 29.6875V31.25H34.375C32.7174 31.25 31.1277 31.9085 29.9556 33.0806C28.7835 34.2527 28.125 35.8424 28.125 37.5V38.6719C28.125 38.7755 28.1662 38.8748 28.2394 38.9481C28.3127 39.0213 28.412 39.0625 28.5156 39.0625H71.4844C71.588 39.0625 71.6873 39.0213 71.7606 38.9481C71.8338 38.8748 71.875 38.7755 71.875 38.6719V37.5C71.875 35.8424 71.2165 34.2527 70.0444 33.0806C68.8723 31.9085 67.2826 31.25 65.625 31.25ZM71.4844 42.1875H28.5156C28.412 42.1875 28.3127 42.2286 28.2394 42.3019C28.1662 42.3751 28.125 42.4745 28.125 42.5781V65.625C28.125 67.2826 28.7835 68.8723 29.9556 70.0444C31.1277 71.2165 32.7174 71.875 34.375 71.875H65.625C67.2826 71.875 68.8723 71.2165 70.0444 70.0444C71.2165 68.8723 71.875 67.2826 71.875 65.625V42.5781C71.875 42.4745 71.8338 42.3751 71.7606 42.3019C71.6873 42.2286 71.588 42.1875 71.4844 42.1875ZM48.3965 64.1699C47.208 65.1084 45.5889 65.625 43.8359 65.625C41.1143 65.625 39.1016 63.8515 38.2051 62.334C37.994 61.9771 37.9333 61.5509 38.0364 61.1493C38.1395 60.7477 38.398 60.4034 38.7549 60.1924C39.1118 59.9813 39.5379 59.9206 39.9396 60.0237C40.3412 60.1268 40.6854 60.3853 40.8965 60.7422C41.002 60.9219 41.9854 62.5 43.8359 62.5C45.4629 62.5 47.3633 61.7881 47.3633 59.7832C47.3633 59.1728 47.2441 58.3232 46.6797 57.7441C45.8457 56.8906 44.458 56.5068 43.7393 56.5068C43.3249 56.5068 42.9274 56.3422 42.6344 56.0492C42.3414 55.7561 42.1768 55.3587 42.1768 54.9443C42.1768 54.5299 42.3414 54.1325 42.6344 53.8395C42.9274 53.5464 43.3249 53.3818 43.7393 53.3818C44.2129 53.3818 45.4395 53.1279 46.208 52.3418C46.4159 52.1373 46.58 51.8926 46.6904 51.6226C46.8007 51.3527 46.8548 51.063 46.8496 50.7715C46.8496 48.5029 44.0537 48.4375 43.7354 48.4375C42.042 48.4375 41.4111 49.4736 41.3848 49.5176C41.2833 49.6996 41.1464 49.8594 40.9821 49.9877C40.8179 50.116 40.6297 50.2102 40.4285 50.2646C40.2274 50.3191 40.0174 50.3328 39.8108 50.3049C39.6043 50.2769 39.4055 50.208 39.226 50.1021C39.0465 49.9961 38.89 49.8554 38.7658 49.6881C38.6415 49.5208 38.552 49.3303 38.5025 49.1279C38.4529 48.9255 38.4444 48.7152 38.4773 48.5094C38.5103 48.3036 38.5841 48.1065 38.6943 47.9297C39.4404 46.6601 41.1572 45.3125 43.7354 45.3125C45.3408 45.3125 46.8369 45.7783 47.9473 46.623C49.2549 47.6191 49.9746 49.0918 49.9746 50.7715C49.979 51.4678 49.8454 52.1582 49.5816 52.8026C49.3178 53.4471 48.9289 54.033 48.4375 54.5263C48.3252 54.6416 48.207 54.749 48.0869 54.8535C48.3803 55.0654 48.6553 55.3016 48.9092 55.5595C49.9404 56.6142 50.4854 58.0742 50.4854 59.7832C50.4883 61.5468 49.7451 63.1045 48.3965 64.1699ZM60.9375 63.6719C60.9375 64.0863 60.7729 64.4837 60.4799 64.7767C60.1868 65.0697 59.7894 65.2344 59.375 65.2344C58.9606 65.2344 58.5632 65.0697 58.2701 64.7767C57.9771 64.4837 57.8125 64.0863 57.8125 63.6719V50.0283L55.6143 51.6484C55.4491 51.7702 55.2615 51.8584 55.0623 51.9077C54.8631 51.957 54.6561 51.9667 54.4531 51.936C54.2502 51.9054 54.0553 51.835 53.8795 51.7291C53.7037 51.6231 53.5505 51.4835 53.4287 51.3183C53.3069 51.1532 53.2188 50.9656 53.1694 50.7664C53.1201 50.5671 53.1105 50.3601 53.1411 50.1572C53.1718 49.9543 53.2421 49.7593 53.3481 49.5836C53.454 49.4078 53.5936 49.2546 53.7588 49.1328L57.999 46.0078C58.2675 45.8099 58.5923 45.7032 58.9258 45.7031H59.375C59.7894 45.7031 60.1868 45.8677 60.4799 46.1607C60.7729 46.4538 60.9375 46.8512 60.9375 47.2656V63.6719Z" fill="#FF0000"/>
</svg>
