<svg width="100" height="100" viewBox="0 0 100 100" fill="none" xmlns="http://www.w3.org/2000/svg">
<circle cx="50" cy="50" r="47.5" fill="white" stroke="#039BE5" stroke-width="5"/>
<path d="M30 33.6679C30 33.6679 30.3 28.4432 36.9875 24.2539C40.9583 21.7666 45.7271 21.0462 50 21.0019C53.9021 20.9654 57.3896 21.4673 59.475 22.24C63.0396 23.5667 70 26.7966 70 33.6679C70 40.8986 63.9208 44.176 57.0104 47.7874C50.1 51.3988 48.3333 54.9405 48.3333 59" stroke="black" stroke-width="10" stroke-miterlimit="10" stroke-linecap="round"/>
<path d="M48.5 78C50.9853 78 53 75.5376 53 72.5C53 69.4624 50.9853 67 48.5 67C46.0147 67 44 69.4624 44 72.5C44 75.5376 46.0147 78 48.5 78Z" fill="black"/>
</svg>
