<svg width="100" height="100" viewBox="0 0 100 100" fill="none" xmlns="http://www.w3.org/2000/svg">
<circle cx="50" cy="50" r="47.5" fill="white" stroke="#039BE5" stroke-width="5"/>
<path d="M44.0929 25.9071C42.2455 24.0414 40.0477 22.5591 37.6257 21.5454C35.2037 20.5317 32.6053 20.0065 29.9797 20.0001C27.3541 19.9936 24.7531 20.506 22.3262 21.5078C19.8992 22.5095 17.6941 23.981 15.8375 25.8375C13.981 27.6941 12.5095 29.8992 11.5078 32.3262C10.506 34.7531 9.9936 37.3541 10.0001 39.9797C10.0065 42.6053 10.5317 45.2037 11.5454 47.6257C12.5591 50.0477 14.0414 52.2455 15.9071 54.0929C17.7545 55.9586 19.9523 57.4409 22.3743 58.4546C24.7963 59.4683 27.3947 59.9935 30.0203 59.9999C32.6459 60.0064 35.2469 59.494 37.6738 58.4922C40.1008 57.4905 42.3059 56.019 44.1625 54.1625C46.019 52.3059 47.4905 50.1008 48.4922 47.6738C49.494 45.2469 50.0064 42.6459 49.9999 40.0203C49.9935 37.3947 49.4683 34.7963 48.4546 32.3743C47.4409 29.9523 45.9586 27.7545 44.0929 25.9071ZM23.5937 35.7292C24.0161 35.7292 24.4289 35.8544 24.7801 36.089C25.1313 36.3237 25.405 36.6572 25.5666 37.0474C25.7282 37.4376 25.7705 37.8669 25.6881 38.2812C25.6057 38.6954 25.4023 39.0759 25.1037 39.3745C24.8051 39.6732 24.4246 39.8766 24.0103 39.959C23.5961 40.0414 23.1667 39.9991 22.7765 39.8375C22.3863 39.6758 22.0528 39.4021 21.8182 39.051C21.5835 38.6998 21.4583 38.2869 21.4583 37.8646C21.4576 37.584 21.5124 37.306 21.6194 37.0466C21.7265 36.7872 21.8838 36.5515 22.0822 36.353C22.2806 36.1546 22.5163 35.9973 22.7757 35.8903C23.0351 35.7832 23.3131 35.7284 23.5937 35.7292ZM38.5123 45.1757C37.4446 48.7615 34.0457 51.3889 30.0044 51.3889C25.9632 51.3889 22.5643 48.7615 21.4877 45.1757C21.4576 45.069 21.4528 44.9566 21.4738 44.8477C21.4949 44.7387 21.5411 44.6362 21.6088 44.5483C21.6764 44.4604 21.7637 44.3895 21.8637 44.3414C21.9636 44.2932 22.0734 44.269 22.1843 44.2709H37.8165C37.9274 44.2692 38.0371 44.2934 38.1369 44.3417C38.2368 44.3899 38.3239 44.4608 38.3915 44.5487C38.4591 44.6366 38.5052 44.739 38.5262 44.8479C38.5472 44.9568 38.5424 45.069 38.5123 45.1757ZM36.4063 40C35.9839 40 35.5711 39.8748 35.2199 39.6401C34.8687 39.4055 34.595 39.072 34.4334 38.6818C34.2718 38.2916 34.2295 37.8622 34.3119 37.448C34.3943 37.0337 34.5977 36.6532 34.8963 36.3546C35.1949 36.056 35.5754 35.8526 35.9897 35.7702C36.4039 35.6878 36.8333 35.7301 37.2235 35.8917C37.6137 36.0533 37.9472 36.327 38.1818 36.6782C38.4165 37.0294 38.5417 37.4422 38.5417 37.8646C38.5424 38.1452 38.4877 38.4232 38.3806 38.6826C38.2735 38.942 38.1163 39.1777 37.9178 39.3761C37.7194 39.5746 37.4837 39.7318 37.2243 39.8389C36.9649 39.946 36.6869 40.0007 36.4063 40Z" fill="#FFEA00"/>
<path d="M84.0929 45.9071C82.2455 44.0414 80.0477 42.5591 77.6257 41.5454C75.2037 40.5317 72.6053 40.0065 69.9797 40.0001C67.3541 39.9936 64.7531 40.506 62.3262 41.5078C59.8992 42.5095 57.6941 43.981 55.8375 45.8375C53.981 47.6941 52.5095 49.8992 51.5078 52.3262C50.506 54.7531 49.9936 57.3541 50.0001 59.9797C50.0065 62.6053 50.5317 65.2037 51.5454 67.6257C52.5591 70.0477 54.0414 72.2455 55.9071 74.0929C57.7545 75.9586 59.9523 77.4409 62.3743 78.4546C64.7963 79.4683 67.3947 79.9935 70.0203 79.9999C72.6459 80.0064 75.2469 79.494 77.6738 78.4922C80.1008 77.4905 82.3059 76.019 84.1625 74.1625C86.019 72.3059 87.4905 70.1008 88.4922 67.6738C89.494 65.2469 90.0064 62.6459 89.9999 60.0203C89.9935 57.3947 89.4683 54.7963 88.4546 52.3743C87.4409 49.9523 85.9586 47.7545 84.0929 45.9071ZM63.5937 55.7292C64.0161 55.7292 64.4289 55.8544 64.7801 56.089C65.1313 56.3237 65.405 56.6572 65.5666 57.0474C65.7282 57.4376 65.7705 57.8669 65.6881 58.2812C65.6057 58.6954 65.4023 59.0759 65.1037 59.3745C64.8051 59.6732 64.4246 59.8766 64.0103 59.959C63.5961 60.0414 63.1667 59.9991 62.7765 59.8375C62.3863 59.6758 62.0528 59.4021 61.8182 59.051C61.5835 58.6998 61.4583 58.2869 61.4583 57.8646C61.4576 57.584 61.5124 57.306 61.6194 57.0466C61.7265 56.7872 61.8838 56.5515 62.0822 56.353C62.2806 56.1546 62.5163 55.9973 62.7757 55.8903C63.0351 55.7832 63.3131 55.7284 63.5937 55.7292ZM61.4877 69.0604C62.5554 65.4747 65.9543 62.8472 69.9956 62.8472C74.0368 62.8472 77.4357 65.4747 78.5114 69.0604C78.5415 69.1671 78.5463 69.2794 78.5253 69.3883C78.5043 69.4971 78.4582 69.5996 78.3906 69.6875C78.323 69.7754 78.2359 69.8463 78.136 69.8945C78.0362 69.9427 77.9265 69.967 77.8157 69.9653H62.1835C62.0726 69.967 61.9629 69.9427 61.8631 69.8945C61.7632 69.8463 61.6761 69.7754 61.6085 69.6875C61.5409 69.5996 61.4948 69.4971 61.4738 69.3883C61.4528 69.2794 61.4576 69.1671 61.4877 69.0604ZM76.4063 60C75.9839 60 75.5711 59.8748 75.2199 59.6401C74.8687 59.4055 74.595 59.072 74.4334 58.6818C74.2718 58.2916 74.2295 57.8622 74.3119 57.448C74.3943 57.0337 74.5977 56.6532 74.8963 56.3546C75.1949 56.056 75.5754 55.8526 75.9897 55.7702C76.4039 55.6878 76.8333 55.7301 77.2235 55.8917C77.6137 56.0533 77.9472 56.327 78.1818 56.6782C78.4165 57.0294 78.5417 57.4422 78.5417 57.8646C78.5424 58.1452 78.4877 58.4232 78.3806 58.6826C78.2735 58.942 78.1163 59.1777 77.9178 59.3761C77.7194 59.5746 77.4837 59.7318 77.2243 59.8389C76.9649 59.946 76.6869 60.0007 76.4063 60Z" fill="#0091FF"/>
</svg>
