<svg width="100" height="100" viewBox="0 0 100 100" fill="none" xmlns="http://www.w3.org/2000/svg">
<circle cx="50" cy="50" r="47.5" fill="white" stroke="#039BE5" stroke-width="5"/>
<path d="M50.8107 25.825C50.5936 25.6025 50.3047 25.4783 50.0042 25.4783C49.7038 25.4783 49.4149 25.6025 49.1978 25.825L22.3499 53.3047C22.2359 53.4215 22.1452 53.562 22.0833 53.7175C22.0214 53.873 21.9895 54.0403 21.9897 54.2094L21.9854 80C21.9854 81.3261 22.477 82.5979 23.3522 83.5355C24.2274 84.4732 25.4143 85 26.652 85H40.6666C41.2854 85 41.8789 84.7366 42.3165 84.2678C42.754 83.7989 42.9999 83.163 42.9999 82.5V61.25C42.9999 60.9185 43.1228 60.6005 43.3416 60.3661C43.5604 60.1317 43.8571 60 44.1665 60H55.8332C56.1426 60 56.4394 60.1317 56.6581 60.3661C56.8769 60.6005 56.9998 60.9185 56.9998 61.25V82.5C56.9998 83.163 57.2457 83.7989 57.6833 84.2678C58.1208 84.7366 58.7143 85 59.3332 85H73.3419C74.5796 85 75.7665 84.4732 76.6417 83.5355C77.5169 82.5979 78.0085 81.3261 78.0085 80V54.2094C78.0087 54.0403 77.9769 53.873 77.915 53.7175C77.8531 53.562 77.7624 53.4215 77.6483 53.3047L50.8107 25.825Z" fill="#C290FF"/>
<path d="M84.2576 48.1484L73.3493 36.9672V20C73.3493 19.337 73.1035 18.7011 72.6659 18.2322C72.2283 17.7634 71.6348 17.5 71.016 17.5H64.016C63.3971 17.5 62.8036 17.7634 62.3661 18.2322C61.9285 18.7011 61.6826 19.337 61.6826 20V25L53.236 16.3469C52.4456 15.4906 51.2702 15 50 15C48.7341 15 47.5616 15.4906 46.7712 16.3484L15.7526 48.1453C14.8455 49.0828 14.7317 50.625 15.5571 51.6406C15.7644 51.897 16.0182 52.1055 16.3031 52.2534C16.5879 52.4013 16.8979 52.4856 17.2142 52.5011C17.5304 52.5166 17.8462 52.463 18.1425 52.3435C18.4388 52.2241 18.7093 52.0413 18.9375 51.8063L49.1979 20.825C49.415 20.6025 49.7039 20.4783 50.0043 20.4783C50.3048 20.4783 50.5937 20.6025 50.8108 20.825L81.0741 51.8063C81.5199 52.2643 82.117 52.5143 82.7345 52.5014C83.352 52.4885 83.9396 52.2138 84.3684 51.7375C85.2638 50.7437 85.1895 49.1031 84.2576 48.1484Z" fill="#C290FF"/>
</svg>
