<svg width="100" height="100" viewBox="0 0 100 100" fill="none" xmlns="http://www.w3.org/2000/svg">
<circle cx="50" cy="50" r="47.5" fill="white" stroke="#039BE5" stroke-width="5"/>
<path d="M68.7305 47.3398H71.7383C72.7018 47.3398 73.4961 47.1771 74.1211 46.8516C74.7461 46.513 75.2083 46.0443 75.5078 45.4453C75.8203 44.8333 75.9766 44.1237 75.9766 43.3164C75.9766 42.5872 75.8333 41.9427 75.5469 41.3828C75.2734 40.8099 74.8503 40.3672 74.2773 40.0547C73.7044 39.7292 72.9818 39.5664 72.1094 39.5664C71.4193 39.5664 70.7812 39.7031 70.1953 39.9766C69.6094 40.25 69.1406 40.6341 68.7891 41.1289C68.4375 41.6237 68.2617 42.2227 68.2617 42.9258H62.6172C62.6172 41.3633 63.0339 40.0026 63.8672 38.8438C64.7135 37.6849 65.8464 36.7799 67.2656 36.1289C68.6849 35.4779 70.2474 35.1523 71.9531 35.1523C73.8802 35.1523 75.5664 35.4648 77.0117 36.0898C78.457 36.7018 79.5833 37.6068 80.3906 38.8047C81.1979 40.0026 81.6016 41.487 81.6016 43.2578C81.6016 44.1562 81.3932 45.0286 80.9766 45.875C80.5599 46.7083 79.9609 47.4635 79.1797 48.1406C78.4115 48.8047 77.474 49.3385 76.3672 49.7422C75.2604 50.1328 74.0169 50.3281 72.6367 50.3281H68.7305V47.3398ZM68.7305 51.6172V48.707H72.6367C74.1862 48.707 75.5469 48.8828 76.7188 49.2344C77.8906 49.5859 78.8737 50.0938 79.668 50.7578C80.4622 51.4089 81.0612 52.1836 81.4648 53.082C81.8685 53.9674 82.0703 54.9505 82.0703 56.0312C82.0703 57.3594 81.8164 58.5443 81.3086 59.5859C80.8008 60.6146 80.0846 61.487 79.1602 62.2031C78.2487 62.9193 77.181 63.4661 75.957 63.8438C74.7331 64.2083 73.3984 64.3906 71.9531 64.3906C70.7552 64.3906 69.5768 64.2279 68.418 63.9023C67.2721 63.5638 66.2305 63.0625 65.293 62.3984C64.3685 61.7214 63.6263 60.875 63.0664 59.8594C62.5195 58.8307 62.2461 57.6133 62.2461 56.207H67.8906C67.8906 56.9362 68.0729 57.5872 68.4375 58.1602C68.8021 58.7331 69.3034 59.1823 69.9414 59.5078C70.5924 59.8333 71.3151 59.9961 72.1094 59.9961C73.0078 59.9961 73.776 59.8333 74.4141 59.5078C75.0651 59.1693 75.5599 58.7005 75.8984 58.1016C76.25 57.4896 76.4258 56.7799 76.4258 55.9727C76.4258 54.931 76.237 54.0977 75.8594 53.4727C75.4818 52.8346 74.9414 52.3659 74.2383 52.0664C73.5352 51.7669 72.7018 51.6172 71.7383 51.6172H68.7305Z" fill="#FF0000"/>
<path d="M59.4219 59.6055V64H39.9688V60.25L49.168 50.3867C50.0924 49.3581 50.8216 48.4531 51.3555 47.6719C51.8893 46.8776 52.2734 46.168 52.5078 45.543C52.7552 44.9049 52.8789 44.2995 52.8789 43.7266C52.8789 42.8672 52.7357 42.1315 52.4492 41.5195C52.1628 40.8945 51.7396 40.4128 51.1797 40.0742C50.6328 39.7357 49.9557 39.5664 49.1484 39.5664C48.2891 39.5664 47.5469 39.7747 46.9219 40.1914C46.3099 40.6081 45.8411 41.1875 45.5156 41.9297C45.2031 42.6719 45.0469 43.5117 45.0469 44.4492H39.4023C39.4023 42.7565 39.806 41.207 40.6133 39.8008C41.4206 38.3815 42.5599 37.2552 44.0312 36.4219C45.5026 35.5755 47.2474 35.1523 49.2656 35.1523C51.2578 35.1523 52.9375 35.4779 54.3047 36.1289C55.6849 36.7669 56.7266 37.6914 57.4297 38.9023C58.1458 40.1003 58.5039 41.5326 58.5039 43.1992C58.5039 44.1367 58.3542 45.0547 58.0547 45.9531C57.7552 46.8385 57.3255 47.724 56.7656 48.6094C56.2188 49.4818 55.5547 50.3672 54.7734 51.2656C53.9922 52.1641 53.1263 53.0951 52.1758 54.0586L47.2344 59.6055H59.4219Z" fill="#00C2FF"/>
<path d="M30.6797 35.5039V64H25.0547V41.9883L18.2969 44.1367V39.7031L30.0742 35.5039H30.6797Z" fill="#FFF500"/>
</svg>
