<svg width="100" height="100" viewBox="0 0 100 100" fill="none" xmlns="http://www.w3.org/2000/svg">
<circle cx="50" cy="50" r="47.5" fill="white" stroke="#039BE5" stroke-width="5"/>
<path d="M26.6248 37.5894C29.2161 37.5894 31.3168 35.4427 31.3168 32.7947C31.3168 30.1467 29.2161 28 26.6248 28C24.0335 28 21.9329 30.1467 21.9329 32.7947C21.9329 35.4427 24.0335 37.5894 26.6248 37.5894Z" fill="#F6F209"/>
<path d="M38.2601 51.7937L37.3946 48.8476V48.8382L35.5129 42.4287H35.5087L35.2984 41.7052C35.0676 40.9119 34.5922 40.2159 33.943 39.721C33.2939 39.2261 32.5057 38.9587 31.6958 38.9585H21.6421C20.8321 38.9582 20.0437 39.2255 19.3945 39.7205C18.7453 40.2155 18.27 40.9116 18.0395 41.7052L17.8292 42.4287H17.8242L15.9424 48.8382V48.8476L15.0736 51.7937C14.8122 52.6833 15.2663 53.6483 16.1268 53.9462C16.3399 54.0204 16.5655 54.0499 16.7901 54.0329C17.0146 54.016 17.2336 53.953 17.4338 53.8477C17.634 53.7423 17.8113 53.5968 17.9553 53.4199C18.0992 53.2429 18.2068 53.0381 18.2716 52.8178L20.4147 45.5187L20.5965 44.8996C20.6496 44.7484 20.753 44.621 20.8888 44.5398C21.0245 44.4586 21.1838 44.4287 21.3389 44.4555C21.494 44.4822 21.6349 44.5638 21.737 44.686C21.8392 44.8082 21.896 44.9633 21.8976 45.124C21.8976 45.1703 21.8928 45.2165 21.8834 45.2618L18.2196 57.7443C18.1595 57.9488 18.1471 58.1649 18.1832 58.3752C18.2194 58.5855 18.3032 58.7843 18.4279 58.9557C18.5526 59.127 18.7147 59.2662 18.9014 59.3621C19.0881 59.458 19.2942 59.508 19.5031 59.5081H21.9328V69.3278C21.9328 70.7371 22.815 71.8373 23.9435 71.8373C25.0721 71.8373 25.9543 70.7371 25.9543 69.3278V59.5081H27.2948V69.3278C27.2948 70.7371 28.177 71.8373 29.3055 71.8373C30.4341 71.8373 31.3163 70.7371 31.3163 69.3278V59.5081H33.8297C34.0388 59.5082 34.2449 59.4583 34.4317 59.3624C34.6185 59.2666 34.7808 59.1274 34.9056 58.956C35.0304 58.7846 35.1142 58.5858 35.1504 58.3754C35.1866 58.165 35.1742 57.9489 35.1141 57.7443L31.4495 45.2601C31.4403 45.2153 31.4358 45.1697 31.4361 45.124C31.4369 44.9628 31.4934 44.807 31.5956 44.6842C31.6977 44.5613 31.839 44.4792 31.9945 44.4523C32.15 44.4254 32.3099 44.4555 32.4459 44.5371C32.5819 44.6188 32.6853 44.7469 32.7381 44.8988L32.9199 45.5178L35.0621 52.8169C35.1272 53.037 35.2349 53.2414 35.3789 53.418C35.5229 53.5946 35.7003 53.7397 35.9003 53.8448C36.1004 53.9499 36.3191 54.0127 36.5435 54.0295C36.7678 54.0464 36.9932 54.0169 37.2061 53.9428C38.0665 53.6483 38.5206 52.6833 38.2601 51.7937Z" fill="#F6F209"/>
<path d="M55.8125 54.7134C57.1082 54.7134 58.1585 53.6401 58.1585 52.3161C58.1585 50.992 57.1082 49.9187 55.8125 49.9187C54.5169 49.9187 53.4666 50.992 53.4666 52.3161C53.4666 53.6401 54.5169 54.7134 55.8125 54.7134Z" fill="#F6F209"/>
<path d="M61.6303 61.8156L61.1976 60.3425V60.3378L60.2567 57.133H60.2546L60.1494 56.7713C60.034 56.3746 59.7963 56.0267 59.4717 55.7792C59.1471 55.5317 58.753 55.398 58.348 55.3979H53.3209C52.9159 55.3978 52.5217 55.5315 52.1971 55.779C51.8725 56.0264 51.6348 56.3745 51.5196 56.7713L51.4144 57.133H51.4119L50.471 60.3378V60.3425L50.0366 61.8156C49.9059 62.2604 50.1329 62.7428 50.5632 62.8918C50.6697 62.9289 50.7825 62.9436 50.8948 62.9352C51.0071 62.9267 51.1166 62.8952 51.2167 62.8425C51.3168 62.7899 51.4055 62.7171 51.4775 62.6286C51.5494 62.5402 51.6032 62.4378 51.6356 62.3276L52.7072 58.678L52.7981 58.3685C52.8247 58.2929 52.8764 58.2292 52.9443 58.1886C53.0121 58.148 53.0918 58.1331 53.1693 58.1464C53.2469 58.1598 53.3174 58.2006 53.3684 58.2617C53.4195 58.3228 53.4479 58.4003 53.4487 58.4807C53.4487 58.5039 53.4463 58.527 53.4416 58.5496L51.6096 64.7909C51.5796 64.8931 51.5734 65.0012 51.5914 65.1063C51.6095 65.2115 51.6514 65.3109 51.7138 65.3965C51.7761 65.4822 51.8572 65.5518 51.9506 65.5998C52.0439 65.6477 52.1469 65.6727 52.2514 65.6727H53.4663V70.5826C53.4663 71.2873 53.9074 71.8374 54.4717 71.8374C55.036 71.8374 55.4771 71.2873 55.4771 70.5826V65.6727H56.1474V70.5826C56.1474 71.2873 56.5886 71.8374 57.1528 71.8374C57.7171 71.8374 58.1583 71.2873 58.1583 70.5826V65.6727H59.415C59.5196 65.6728 59.6226 65.6478 59.716 65.5999C59.8094 65.552 59.8906 65.4824 59.953 65.3967C60.0154 65.311 60.0573 65.2116 60.0754 65.1064C60.0935 65.0012 60.0873 64.8932 60.0572 64.7909L58.2249 58.5488C58.2203 58.5264 58.218 58.5036 58.2182 58.4807C58.2186 58.4001 58.2468 58.3222 58.2979 58.2608C58.349 58.1994 58.4196 58.1583 58.4974 58.1449C58.5752 58.1314 58.6551 58.1464 58.7231 58.1873C58.7911 58.2281 58.8428 58.2921 58.8692 58.3681L58.9601 58.6776L60.0313 62.3272C60.0638 62.4372 60.1177 62.5394 60.1897 62.6277C60.2617 62.716 60.3503 62.7886 60.4504 62.8411C60.5504 62.8936 60.6598 62.9251 60.772 62.9335C60.8841 62.9419 60.9968 62.9271 61.1033 62.8901C61.5335 62.7428 61.7606 62.2604 61.6303 61.8156Z" fill="#F6F209"/>
<path d="M44.167 54.7134C45.7779 54.7134 47.0838 53.6401 47.0838 52.3161C47.0838 50.992 45.7779 49.9187 44.167 49.9187C42.5561 49.9187 41.2502 50.992 41.2502 52.3161C41.2502 53.6401 42.5561 54.7134 44.167 54.7134Z" fill="#F6F209"/>
<path d="M46.6667 55.3982H41.6665C40.7832 55.4003 39.9368 55.6897 39.3122 56.203C38.6877 56.7164 38.3356 57.412 38.333 58.138V62.7409C38.333 63.2054 38.7721 63.6006 39.3367 63.6173C39.4766 63.6215 39.6161 63.6024 39.7469 63.5613C39.8777 63.5202 39.997 63.4578 40.0978 63.378C40.1986 63.2981 40.2788 63.2023 40.3335 63.0964C40.3883 62.9905 40.4165 62.8766 40.4164 62.7615V58.4921C40.4151 58.4037 40.4545 58.3182 40.5266 58.2527C40.5988 58.1872 40.6984 58.1465 40.8055 58.1389C40.8625 58.1358 40.9197 58.1423 40.9735 58.1581C41.0272 58.174 41.0765 58.1987 41.1182 58.2308C41.1598 58.2629 41.193 58.3017 41.2157 58.3448C41.2383 58.3879 41.2499 58.4344 41.2498 58.4814V70.8526C41.2498 71.1137 41.376 71.3641 41.6007 71.5488C41.8253 71.7334 42.13 71.8372 42.4478 71.8372C42.7655 71.8372 43.0702 71.7334 43.2949 71.5488C43.5195 71.3641 43.6457 71.1137 43.6457 70.8526V64.7453C43.6439 64.6347 43.6929 64.5277 43.7831 64.4456C43.8732 64.3635 43.9977 64.3125 44.1317 64.3026C44.203 64.2987 44.2745 64.3069 44.3418 64.3266C44.409 64.3464 44.4706 64.3773 44.5228 64.4174C44.5749 64.4576 44.6164 64.5061 44.6447 64.56C44.6731 64.6139 44.6876 64.672 44.6875 64.7307V70.8526C44.6875 71.1137 44.8137 71.3641 45.0383 71.5488C45.263 71.7334 45.5677 71.8372 45.8854 71.8372C46.2031 71.8372 46.5078 71.7334 46.7325 71.5488C46.9572 71.3641 47.0834 71.1137 47.0834 70.8526V58.4921C47.0821 58.4037 47.1214 58.3182 47.1936 58.2527C47.2657 58.1872 47.3654 58.1465 47.4725 58.1389C47.5295 58.1358 47.5866 58.1423 47.6404 58.1581C47.6942 58.174 47.7435 58.1987 47.7851 58.2308C47.8268 58.2629 47.86 58.3017 47.8826 58.3448C47.9053 58.3879 47.9169 58.4344 47.9168 58.4814V62.7418C47.9168 63.2063 48.3558 63.6014 48.9204 63.6181C49.0605 63.6223 49.2001 63.6033 49.3309 63.5621C49.4617 63.5209 49.5811 63.4585 49.6819 63.3785C49.7827 63.2985 49.8629 63.2027 49.9176 63.0967C49.9722 62.9906 50.0003 62.8766 50.0002 62.7615V58.138C49.9976 57.412 49.6455 56.7164 49.0209 56.203C48.3964 55.6897 47.55 55.4003 46.6667 55.3982Z" fill="#F6F209"/>
<path d="M73.3336 38.0532C76.5554 38.0532 79.1672 35.8627 79.1672 33.1606C79.1672 30.4585 76.5554 28.2681 73.3336 28.2681C70.1118 28.2681 67.5 30.4585 67.5 33.1606C67.5 35.8627 70.1118 38.0532 73.3336 38.0532Z" fill="#F6F209"/>
<path d="M78.3334 39.4512H68.3334C66.5669 39.4556 64.8742 40.0461 63.6251 41.0937C62.376 42.1414 61.672 43.5611 61.6667 45.0427V54.4364C61.6667 55.3843 62.5449 56.1907 63.674 56.2248C63.9539 56.2333 64.2329 56.1945 64.4944 56.1106C64.756 56.0267 64.9946 55.8994 65.1962 55.7364C65.3978 55.5734 65.5581 55.3779 65.6676 55.1618C65.7771 54.9456 65.8335 54.7132 65.8334 54.4783V45.7652C65.8308 45.5849 65.9095 45.4104 66.0538 45.2767C66.1981 45.143 66.3973 45.0601 66.6115 45.0444C66.7255 45.0381 66.8399 45.0514 66.9474 45.0837C67.055 45.116 67.1535 45.1665 67.2368 45.232C67.3201 45.2976 67.3865 45.3768 67.4318 45.4647C67.4771 45.5527 67.5003 45.6475 67.5001 45.7433V70.9907C67.5001 71.5236 67.7525 72.0347 68.2018 72.4116C68.6511 72.7884 69.2605 73.0001 69.8959 73.0001C70.5313 73.0001 71.1407 72.7884 71.59 72.4116C72.0393 72.0347 72.2917 71.5236 72.2917 70.9907V58.5269C72.288 58.3013 72.3861 58.0828 72.5664 57.9153C72.7466 57.7478 72.9956 57.6436 73.2636 57.6235C73.4062 57.6155 73.5492 57.6321 73.6837 57.6724C73.8183 57.7127 73.9415 57.7758 74.0457 57.8578C74.15 57.9397 74.233 58.0388 74.2897 58.1488C74.3463 58.2588 74.3754 58.3774 74.3751 58.4972V70.9907C74.3751 71.5236 74.6275 72.0347 75.0768 72.4116C75.5261 72.7884 76.1355 73.0001 76.7709 73.0001C77.4063 73.0001 78.0157 72.7884 78.465 72.4116C78.9143 72.0347 79.1667 71.5236 79.1667 70.9907V45.7652C79.1641 45.5849 79.2428 45.4104 79.3871 45.2767C79.5314 45.143 79.7307 45.0601 79.9449 45.0444C80.0588 45.0381 80.1732 45.0514 80.2807 45.0837C80.3883 45.116 80.4868 45.1665 80.5701 45.232C80.6535 45.2976 80.7198 45.3768 80.7651 45.4647C80.8104 45.5527 80.8336 45.6475 80.8334 45.7433V54.4381C80.8334 55.3861 81.7115 56.1924 82.8407 56.2265C83.1207 56.2351 83.3999 56.1962 83.6616 56.1122C83.9232 56.0282 84.162 55.9008 84.3636 55.7375C84.5652 55.5743 84.7255 55.3787 84.8348 55.1623C84.9442 54.946 85.0004 54.7133 85.0001 54.4783V45.0427C84.9948 43.5611 84.2908 42.1414 83.0417 41.0937C81.7926 40.0461 80.0999 39.4556 78.3334 39.4512Z" fill="#F6F209"/>
</svg>
