<svg width="100" height="100" viewBox="0 0 100 100" fill="none" xmlns="http://www.w3.org/2000/svg">
<circle cx="50" cy="50" r="47.5" fill="white" stroke="#039BE5" stroke-width="5"/>
<path d="M67.2657 45.6484C65.7501 44.7871 63.8565 45.4258 63.0362 46.9844L58.9952 55.2275C58.9195 55.3836 58.7872 55.505 58.6253 55.5672C58.4634 55.6294 58.2839 55.6277 58.1231 55.5625C57.9958 55.5118 57.8866 55.424 57.8098 55.3104C57.733 55.1969 57.6921 55.0629 57.6925 54.9258V32.0312C57.6925 30.6729 56.4376 29.6875 55.0782 29.6875C53.7188 29.6875 52.5392 30.6729 52.5392 32.0312V47.3281C52.5424 47.6138 52.4342 47.8895 52.2374 48.0967C52.0407 48.3038 51.7709 48.4261 51.4854 48.4375C51.3427 48.4402 51.2008 48.4145 51.0681 48.3617C50.9354 48.3089 50.8145 48.2302 50.7126 48.1302C50.6106 48.0302 50.5297 47.9108 50.4744 47.7792C50.4191 47.6475 50.3907 47.5061 50.3907 47.3633V27.3438C50.3907 25.9854 49.3224 25 47.963 25C46.6036 25 45.5079 25.9854 45.5079 27.3438V47.3281C45.5112 47.6138 45.4029 47.8895 45.2062 48.0967C45.0094 48.3038 44.7397 48.4261 44.4542 48.4375C44.3114 48.4402 44.1695 48.4145 44.0368 48.3617C43.9041 48.3089 43.7832 48.2302 43.6813 48.1302C43.5794 48.0302 43.4984 47.9108 43.4432 47.7792C43.3879 47.6475 43.3594 47.5061 43.3595 47.3633V30.4688C43.3595 29.1104 42.1798 28.125 40.8204 28.125C39.461 28.125 38.2813 29.208 38.2813 30.5664V48.8906C38.2846 49.1763 38.1764 49.452 37.9796 49.6592C37.7829 49.8663 37.5131 49.9886 37.2276 50C37.0848 50.0027 36.943 49.977 36.8102 49.9242C36.6775 49.8714 36.5567 49.7927 36.4548 49.6927C36.3528 49.5927 36.2719 49.4733 36.2166 49.3417C36.1613 49.21 36.1329 49.0686 36.1329 48.9258V36.7188C36.1329 35.3604 35.0509 34.375 33.6915 34.375C32.3321 34.375 31.2384 35.373 31.2501 36.7188V57.8125C31.2501 69.2783 38.2813 75 46.8751 75H48.4376C57.0313 75 59.7374 71.1328 61.7188 66.4062L68.4288 49.9023C69.0753 48.1445 68.7804 46.5088 67.2657 45.6484Z" fill="#AE83DA"/>
</svg>
